:SAMPLES-PER-SECOND 30
:FULLY-SPECIFIED
:DEGREES
64
root  24.9038 38.9457 -37.8406 111.846 -84.2081 -115.628
RightUpLeg  -14.8122 -14.106 7.55318
RightLeg  24.908 -0.74499 -0.542885
RightFoot  -6.30903 0.11979 -3.69835
RightToes  -5.8209e-011 0 -3.6325e-017
Spine  6.84159 -1.83638 13.341
Spine1  8.93325 -0.886396 0.876089
HEad  -9.48074 0.0245395 -4.27901
LeftShoulder1  9.09052 -12.5468 -49.4431
LeftArm  -6.97275 15.9411 -28.1822
LeftForeArm  27.4914 -29.9297 -4.99064
LeftHand  -0.244104 0.0205437 5.32207
RightShoulder  6.15009 9.46554 41.2096
RightArm  5.14643 -11.8791 31.2822
RightForeArm  -7.81396 22.7846 5.48475
RightHand  -1.59945 4.37243 -19.1302
LeftUpLeg  -9.64014 2.38038 6.85661
LeftLeg  64.2364 3.17737 7.80683
LeftFoot  5.27336 0.257784 -1.99919
LeftToes  5.72949e-011 -2.03295e-011 6.54899e-012
65
root  23.3685 39.301 -38.0708 121.764 -84.58 -125.641
RightUpLeg  -10.7787 -13.7875 5.92663
RightLeg  22.8742 -0.50058 0.398738
RightFoot  -7.73817 0.0549786 -3.40803
RightToes  -5.8209e-011 0 -3.6325e-017
Spine  6.83419 -1.20182 13.0698
Spine1  8.70212 -0.0379453 -0.0485988
HEad  -9.06801 0.0208016 -4.30433
LeftShoulder1  9.07102 -12.5736 -49.2551
LeftArm  -5.89221 17.36 -28.5055
LeftForeArm  26.7133 -28.3946 -4.6826
LeftHand  -0.244104 0.0205437 5.32207
RightShoulder  6.08814 9.48409 40.6963
RightArm  5.83061 -9.65866 31.9713
RightForeArm  -5.81127 28.5798 6.46121
RightHand  -1.4863 3.64532 -19.1869
LeftUpLeg  -14.2251 2.18802 5.49144
LeftLeg  62.5568 2.90008 6.68963
LeftFoot  2.4843 0.201901 -1.78327
LeftToes  5.72949e-011 -2.03295e-011 6.54899e-012
66
root  21.8359 39.6041 -38.2739 130.716 -84.6357 -134.527
RightUpLeg  -6.82149 -11.9879 4.23918
RightLeg  20.4953 -1.66964 1.57621
RightFoot  -8.90934 0.000894533 -2.86662
RightToes  -5.8209e-011 0 -3.6325e-017
Spine  6.48026 -0.658009 13.1565
Spine1  8.68087 0.697089 -1.11342
HEad  -8.74633 0.037117 -4.65453
LeftShoulder1  9.07031 -12.6219 -49.104
LeftArm  -4.53544 18.7181 -28.6541
LeftForeArm  25.0902 -26.5217 -4.35313
LeftHand  -0.244104 0.0205437 5.32207
RightShoulder  5.94923 9.34233 40.1641
RightArm  5.47824 -7.74282 32.6295
RightForeArm  -3.00103 34.5459 7.91446
RightHand  -1.36771 2.98346 -19.0411
LeftUpLeg  -18.041 1.84465 4.27386
LeftLeg  57.9054 2.58013 4.97902
LeftFoot  0.544372 0.147888 -1.46251
LeftToes  5.72949e-011 -2.03295e-011 6.54899e-012
67
root  20.3099 39.831 -38.4582 141.314 -84.3409 -145.014
RightUpLeg  -2.98436 -9.80344 2.77851
RightLeg  17.8872 -2.66437 2.69875
RightFoot  -10.1416 -0.0454875 -2.19451
RightToes  -5.8209e-011 0 -3.6325e-017
Spine  6.00293 -0.052723 13.1363
Spine1  8.86821 1.43939 -2.20673
HEad  -8.67477 0.113859 -5.01978
LeftShoulder1  9.06669 -12.6264 -49.0706
LeftArm  -3.55554 19.9555 -28.6867
LeftForeArm  23.5277 -24.5821 -4.01824
LeftHand  -0.244104 0.0205437 5.32207
RightShoulder  5.84876 9.19941 39.9089
RightArm  4.94167 -5.83751 33.0698
RightForeArm  -1.08115 40.0529 9.48443
RightHand  -1.29865 2.56411 -19.0235
LeftUpLeg  -20.7432 2.26536 3.20291
LeftLeg  50.4776 2.33466 3.47612
LeftFoot  -1.00984 0.182718 -1.95828
LeftToes  5.72949e-011 -2.03295e-011 6.54899e-012
68
root  18.7909 39.9184 -38.6236 150.825 -83.662 -154.194
RightUpLeg  0.273218 -8.57972 1.72697
RightLeg  15.8038 -2.46035 3.55212
RightFoot  -11.5064 -0.081164 -1.89974
RightToes  -5.8209e-011 0 -3.6325e-017
Spine  5.40719 0.559109 13.061
Spine1  8.99008 2.12019 -3.1874
HEad  -8.73533 0.465284 -5.23607
LeftShoulder1  9.02847 -12.5792 -49.0067
LeftArm  -3.00624 21.1842 -28.7402
LeftForeArm  22.3117 -22.53 -3.80282
LeftHand  -0.244104 0.0205437 5.32207
RightShoulder  5.8864 9.26689 39.957
RightArm  4.49313 -4.05027 33.1887
RightForeArm  -0.388479 44.7464 11.1351
RightHand  -1.25926 2.17545 -19.373
LeftUpLeg  -22.5161 3.94418 2.20623
LeftLeg  40.746 2.19404 2.39451
LeftFoot  -1.47791 0.247532 -2.75937
LeftToes  5.72949e-011 -2.03295e-011 6.54899e-012
